HIERARCHY
ROOT hip
{
	OFFSET 0.000000 0.000000 0.000000 
	CHANNELS 6 Xposition Yposition Zposition Xrotation Zrotation Yrotation
	JOINT abdomen
	{
		OFFSET 0.000000 3.402643 0.000000 
		CHANNELS 3 Xrotation Zrotation Yrotation
		JOINT chest
		{
			OFFSET 0.000000 8.438565 -0.680529 
			CHANNELS 3 Xrotation Zrotation Yrotation
			JOINT neck
			{
				OFFSET 0.000000 10.207942 -0.272212 
				CHANNELS 3 Xrotation Zrotation Yrotation
				JOINT head
				{
					OFFSET 0.000000 3.130431 0.000000 
					CHANNELS 3 Xrotation Zrotation Yrotation
					End Site
					{
						OFFSET 0.000000 3.130435 0.000000 
					}
				}
			}
			JOINT lCollar
			{
				OFFSET 3.470700 6.669187 -0.816635 
				CHANNELS 3 Yrotation Zrotation Xrotation
				JOINT lShldr
				{
					OFFSET 3.198488 0.000000 0.000000 
					CHANNELS 3 Zrotation Yrotation Xrotation
					JOINT lForeArm
					{
						OFFSET 10.139888 0.000000 0.000000 
						CHANNELS 3 Yrotation Zrotation Xrotation
						JOINT lHand
						{
							OFFSET 8.370511 0.000000 0.000000 
							CHANNELS 3 Zrotation Yrotation Xrotation
							End Site
							{
								OFFSET 4.083176 0.000000 0.000000 
							}
						}
					}
				}
			}
			JOINT rCollar
			{
				OFFSET -3.470700 6.669187 -0.816635 
				CHANNELS 3 Yrotation Zrotation Xrotation
				JOINT rShldr
				{
					OFFSET -3.198488 0.000000 0.000000 
					CHANNELS 3 Zrotation Yrotation Xrotation
					JOINT rForeArm
					{
						OFFSET -10.139888 0.000000 0.000000 
						CHANNELS 3 Yrotation Zrotation Xrotation
						JOINT rHand
						{
							OFFSET -8.370511 0.000000 0.000000 
							CHANNELS 3 Zrotation Yrotation Xrotation
							End Site
							{
								OFFSET -4.083176 0.000000 0.000000 
							}
						}
					}
				}
			}
		}
	}
	JOINT lThigh
	{
		OFFSET 5.308129 -1.633274 1.361059 
		CHANNELS 3 Xrotation Zrotation Yrotation
		JOINT lShin
		{
			OFFSET -2.041588 -20.007561 0.000000 
			CHANNELS 3 Xrotation Zrotation Yrotation
			JOINT lFoot
			{
				OFFSET 0.000000 -19.190928 -1.224953 
				CHANNELS 3 Xrotation Yrotation Zrotation
				End Site
				{
					OFFSET 0.000000 -2.449906 4.627600 
				}
			}
		}
	}
	JOINT rThigh
	{
		OFFSET -5.308129 -1.633274 1.361059 
		CHANNELS 3 Xrotation Zrotation Yrotation
		JOINT rShin
		{
			OFFSET 2.041588 -20.007561 0.000000 
			CHANNELS 3 Xrotation Zrotation Yrotation
			JOINT rFoot
			{
				OFFSET 0.000000 -19.190928 -1.224953 
				CHANNELS 3 Xrotation Yrotation Zrotation
				End Site
				{
					OFFSET 0.000000 -2.449906 4.627600 
				}
			}
		}
	}
}
MOTION
Frames: 6
Frame Time: 0.033333
3.722537 45.634396 2.579632 -10.177257 -1.330736 5.929306 0.000000 0.000000 0.000000 5.005117 8.437774 -21.078014 -26.908484 -12.142993 13.560086 31.160679 8.348166 4.086548 -3.521967 9.154817 6.304141 10.331972 -51.413731 -85.017738 -105.101524 -19.732834 48.143005 30.004164 8.716423 -9.239100 3.089181 -14.089146 8.026228 100.495209 14.795021 7.322439 123.336479 21.026371 -45.747108 5.969597 0.821009 -7.337332 -14.391315 23.175848 10.773623 58.392914 0.119607 -35.682335 -16.772991 -4.517117 21.966410 -6.494958 -23.713303 -19.287146 54.954529 -8.917794 22.694391 -20.748381 1.873222 -8.340555 
3.771658 46.601086 2.741022 -8.495636 -0.605272 14.434320 0.000000 0.000000 0.000000 2.777035 3.217124 -8.401662 -25.655262 -8.202987 -0.335601 36.099083 6.123636 -4.517548 -3.521967 9.154817 6.304141 -93.940651 -73.992485 23.337837 -106.431396 -13.460657 8.062471 20.179600 11.443541 -8.623750 3.089181 -14.089146 8.026228 89.089561 20.411312 -29.421865 146.305405 26.519182 -65.999268 12.914162 12.021885 -4.572793 -17.720036 19.593622 5.828973 54.431442 1.734765 -38.505730 -13.599401 -3.486931 19.603291 -0.588131 -25.582165 -27.171270 50.316780 -4.535255 23.115669 -17.762556 1.510795 -7.688618 
4.180191 47.453979 2.705152 -7.497054 1.284726 12.972220 0.000000 0.000000 0.000000 -2.007267 -3.278080 11.874879 -13.391010 -0.151873 -13.593804 26.210636 1.971426 -11.491258 -3.521967 9.154817 6.304141 -103.364502 -39.166470 39.405552 -103.394455 -14.333744 -53.693630 -9.720404 -2.434923 -6.328916 3.089181 -14.089146 8.026228 56.478191 28.402374 -70.799088 144.468475 34.391785 -66.751694 32.117821 27.081987 4.967436 -15.380867 17.197138 7.591106 50.356945 0.526902 -38.361450 -11.346831 -2.772951 17.642046 -0.842684 -28.130299 -27.412024 46.959129 -4.802348 27.384684 -14.175545 1.225239 -7.288122 
4.478479 47.755646 2.633160 -7.943285 3.384407 5.214423 0.000000 0.000000 0.000000 -5.660747 -10.220186 27.641933 -12.352608 13.158674 -20.601585 22.266476 -7.283630 -10.743125 -3.521967 9.154817 6.304141 -91.605789 -11.442762 31.317123 -95.647453 -6.832953 -46.511578 -24.137373 -12.030531 -1.745445 3.089181 -14.089146 8.026228 26.824883 28.668510 -73.551170 105.830383 27.971292 -10.196189 22.474878 4.238097 -4.562702 -10.524139 16.358921 12.312620 48.106251 -2.163482 -36.832458 -10.856695 -2.563144 16.785385 -4.941837 -30.370907 -23.236540 45.279327 -7.699606 33.801838 -13.111789 1.200302 -7.646158 
4.535500 47.730686 2.625282 -5.455787 3.823945 2.682194 0.000000 0.000000 0.000000 -9.330988 -15.740623 33.138634 -21.039120 23.571276 -27.020761 22.192156 -15.497035 -8.333673 -3.521967 9.154817 6.304141 -89.460098 12.933615 3.882331 -91.151543 -14.309156 -68.549583 -31.939112 -17.924788 2.109145 3.089181 -14.089146 8.026228 -4.468921 10.385056 -58.907097 91.062180 22.647987 66.647064 25.858683 -29.662596 -14.571766 -11.326448 16.499367 13.981455 47.328480 -3.615372 -37.022373 -12.250801 -2.873107 17.493029 -8.750237 -31.190657 -21.833143 44.567234 -7.758848 35.073601 -13.620805 1.267769 -7.859635 
4.247530 47.568771 2.808004 -3.052492 1.997534 6.810995 0.000000 0.000000 0.000000 -9.814242 -16.456036 29.913033 -29.860693 24.138521 -30.625517 27.516811 -13.332159 -9.105429 -3.521967 9.154817 6.304141 -103.686302 27.094316 -19.738663 -85.685593 -11.700403 -60.620598 -30.723785 -16.030453 1.113735 3.089181 -14.089146 8.026228 -18.519035 -3.044946 -54.602276 88.543221 21.291004 63.518295 1.380020 -2.497026 -8.100878 -15.611685 18.245481 12.369904 48.437351 -2.779619 -38.836334 -12.446940 -3.020108 18.154755 -7.568587 -29.794594 -24.020630 44.005917 -5.499405 32.115616 -16.100992 1.507464 -8.142769 
